<mxfile host="app.diagrams.net" modified="2023-11-29T05:27:19.817Z" agent="Mozilla/5.0 (Windows NT 10.0; Win64; x64) AppleWebKit/537.36 (KHTML, like Gecko) Chrome/119.0.0.0 Safari/537.36" etag="8cA93JaHptb99ITdoT5H" version="22.1.4" type="gitlab">
  <diagram name="Page-1" id="03018318-947c-dd8e-b7a3-06fadd420f32">
    <mxGraphModel dx="1290" dy="604" grid="1" gridSize="10" guides="1" tooltips="1" connect="1" arrows="1" fold="1" page="1" pageScale="1" pageWidth="1100" pageHeight="850" background="none" math="0" shadow="0">
      <root>
        <mxCell id="0" />
        <mxCell id="1" parent="0" />
        <mxCell id="677b7b8949515195-1" value="" style="whiteSpace=wrap;html=1;rounded=0;shadow=0;labelBackgroundColor=none;strokeColor=#000000;strokeWidth=1;fillColor=none;fontFamily=Verdana;fontSize=12;fontColor=#000000;align=center;comic=1;" parent="1" vertex="1">
          <mxGeometry x="20" y="20" width="1060" height="810" as="geometry" />
        </mxCell>
        <mxCell id="677b7b8949515195-2" value="Giggles Gears" style="whiteSpace=wrap;html=1;rounded=0;shadow=0;labelBackgroundColor=none;strokeWidth=1;fontFamily=Verdana;fontSize=28;align=center;comic=1;" parent="1" vertex="1">
          <mxGeometry x="40" y="60" width="270" height="50" as="geometry" />
        </mxCell>
        <mxCell id="677b7b8949515195-8" value="" style="whiteSpace=wrap;html=1;rounded=0;shadow=0;labelBackgroundColor=none;strokeWidth=1;fillColor=none;fontFamily=Verdana;fontSize=12;align=center;comic=1;" parent="1" vertex="1">
          <mxGeometry x="30" y="320" width="1040" height="500" as="geometry" />
        </mxCell>
        <mxCell id="677b7b8949515195-9" value="" style="line;strokeWidth=1;html=1;rounded=0;shadow=0;labelBackgroundColor=none;fillColor=none;fontFamily=Verdana;fontSize=14;fontColor=#000000;align=center;comic=1;" parent="1" vertex="1">
          <mxGeometry x="20" y="140" width="1060" height="10" as="geometry" />
        </mxCell>
        <mxCell id="677b7b8949515195-10" value="" style="whiteSpace=wrap;html=1;rounded=0;shadow=0;labelBackgroundColor=none;strokeWidth=1;fillColor=none;fontFamily=Verdana;fontSize=12;align=center;comic=1;" parent="1" vertex="1">
          <mxGeometry x="30" y="160" width="1040" height="50" as="geometry" />
        </mxCell>
        <mxCell id="677b7b8949515195-13" value="Our Cars Collection" style="text;html=1;points=[];align=left;verticalAlign=top;spacingTop=-4;fontSize=14;fontFamily=Verdana" parent="1" vertex="1">
          <mxGeometry x="510" y="175" width="173" height="20" as="geometry" />
        </mxCell>
        <mxCell id="HJ_UJLVflk7De_gkT-XH-1" value="Home" style="text;html=1;points=[];align=left;verticalAlign=top;spacingTop=-4;fontSize=14;fontFamily=Verdana" vertex="1" parent="1">
          <mxGeometry x="570" y="75" width="60" height="20" as="geometry" />
        </mxCell>
        <mxCell id="HJ_UJLVflk7De_gkT-XH-2" value="SmartSearch" style="text;html=1;points=[];align=left;verticalAlign=top;spacingTop=-4;fontSize=14;fontFamily=Verdana" vertex="1" parent="1">
          <mxGeometry x="720" y="75" width="60" height="20" as="geometry" />
        </mxCell>
        <mxCell id="HJ_UJLVflk7De_gkT-XH-3" value="Wishlist" style="text;html=1;points=[];align=left;verticalAlign=top;spacingTop=-4;fontSize=14;fontFamily=Verdana" vertex="1" parent="1">
          <mxGeometry x="910" y="75" width="60" height="20" as="geometry" />
        </mxCell>
        <mxCell id="HJ_UJLVflk7De_gkT-XH-4" value="Profile" style="text;html=1;points=[];align=left;verticalAlign=top;spacingTop=-4;fontSize=14;fontFamily=Verdana" vertex="1" parent="1">
          <mxGeometry x="990" y="75" width="60" height="20" as="geometry" />
        </mxCell>
        <mxCell id="HJ_UJLVflk7De_gkT-XH-5" value="Catalogue" style="text;html=1;points=[];align=left;verticalAlign=top;spacingTop=-4;fontSize=14;fontFamily=Verdana" vertex="1" parent="1">
          <mxGeometry x="630" y="75" width="60" height="20" as="geometry" />
        </mxCell>
        <mxCell id="HJ_UJLVflk7De_gkT-XH-6" value="History" style="text;html=1;points=[];align=left;verticalAlign=top;spacingTop=-4;fontSize=14;fontFamily=Verdana" vertex="1" parent="1">
          <mxGeometry x="830" y="75" width="60" height="20" as="geometry" />
        </mxCell>
        <mxCell id="HJ_UJLVflk7De_gkT-XH-7" value="" style="shape=rect;fillColor=#F6F6F6;strokeColor=none;" vertex="1" parent="1">
          <mxGeometry x="130" y="240" width="320" height="40" as="geometry" />
        </mxCell>
        <mxCell id="HJ_UJLVflk7De_gkT-XH-8" value="" style="html=1;strokeWidth=1;shadow=0;dashed=0;shape=mxgraph.ios7ui.marginRect;rx=3;ry=3;rectMargin=5;fillColor=#E4E4E4;strokeColor=none;" vertex="1" parent="HJ_UJLVflk7De_gkT-XH-7">
          <mxGeometry width="320" height="40" as="geometry" />
        </mxCell>
        <mxCell id="HJ_UJLVflk7De_gkT-XH-9" value="Search" style="shape=mxgraph.ios7.icons.looking_glass;strokeColor=#878789;fillColor=none;fontColor=#878789;labelPosition=right;verticalLabelPosition=middle;align=left;verticalAlign=middle;fontSize=6;fontStyle=0;spacingTop=2;sketch=0;html=1;" vertex="1" parent="HJ_UJLVflk7De_gkT-XH-7">
          <mxGeometry x="0.5" y="0.5" width="9.5" height="6" relative="1" as="geometry">
            <mxPoint x="-17" y="-3" as="offset" />
          </mxGeometry>
        </mxCell>
        <mxCell id="HJ_UJLVflk7De_gkT-XH-10" value="Car Name:" style="text;html=1;points=[];align=left;verticalAlign=top;spacingTop=-4;fontSize=14;fontFamily=Verdana" vertex="1" parent="1">
          <mxGeometry x="40" y="250" width="90" height="20" as="geometry" />
        </mxCell>
        <mxCell id="HJ_UJLVflk7De_gkT-XH-11" value="Honda" style="rounded=1;fillColor=#F1F2F4;strokeColor=none;html=1;whiteSpace=wrap;fontColor=#596780;align=left;fontSize=12;spacingLeft=10;sketch=0;" vertex="1" parent="1">
          <mxGeometry x="470" y="243.5" width="90" height="33" as="geometry" />
        </mxCell>
        <mxCell id="HJ_UJLVflk7De_gkT-XH-12" value="" style="shape=triangle;direction=south;fillColor=#596780;strokeColor=none;html=1;sketch=0;" vertex="1" parent="HJ_UJLVflk7De_gkT-XH-11">
          <mxGeometry x="1" y="0.5" width="12" height="6" relative="1" as="geometry">
            <mxPoint x="-20" y="-3" as="offset" />
          </mxGeometry>
        </mxCell>
        <mxCell id="HJ_UJLVflk7De_gkT-XH-13" value="Petrol" style="rounded=1;fillColor=#F1F2F4;strokeColor=none;html=1;whiteSpace=wrap;fontColor=#596780;align=left;fontSize=12;spacingLeft=10;sketch=0;" vertex="1" parent="1">
          <mxGeometry x="580" y="247" width="80" height="33" as="geometry" />
        </mxCell>
        <mxCell id="HJ_UJLVflk7De_gkT-XH-14" value="" style="shape=triangle;direction=south;fillColor=#596780;strokeColor=none;html=1;sketch=0;" vertex="1" parent="HJ_UJLVflk7De_gkT-XH-13">
          <mxGeometry x="1" y="0.5" width="12" height="6" relative="1" as="geometry">
            <mxPoint x="-20" y="-3" as="offset" />
          </mxGeometry>
        </mxCell>
        <mxCell id="HJ_UJLVflk7De_gkT-XH-15" value="Yes" style="rounded=1;fillColor=#F1F2F4;strokeColor=none;html=1;whiteSpace=wrap;fontColor=#596780;align=left;fontSize=12;spacingLeft=10;sketch=0;" vertex="1" parent="1">
          <mxGeometry x="683" y="243.5" width="67" height="33" as="geometry" />
        </mxCell>
        <mxCell id="HJ_UJLVflk7De_gkT-XH-16" value="" style="shape=triangle;direction=south;fillColor=#596780;strokeColor=none;html=1;sketch=0;" vertex="1" parent="HJ_UJLVflk7De_gkT-XH-15">
          <mxGeometry x="1" y="0.5" width="12" height="6" relative="1" as="geometry">
            <mxPoint x="-20" y="-3" as="offset" />
          </mxGeometry>
        </mxCell>
        <mxCell id="HJ_UJLVflk7De_gkT-XH-17" value="Price Range" style="html=1;shadow=0;dashed=0;shape=mxgraph.bootstrap.rangeInput;dx=0.6;strokeColor=#0085FC;fillColor=#DEE2E6;fontColor=#777777;whiteSpace=wrap;align=left;verticalAlign=bottom;fontStyle=0;fontSize=14;labelPosition=center;verticalLabelPosition=top;" vertex="1" parent="1">
          <mxGeometry x="770" y="260" width="280" height="20" as="geometry" />
        </mxCell>
        <mxCell id="HJ_UJLVflk7De_gkT-XH-20" value="" style="ellipse;whiteSpace=wrap;html=1;aspect=fixed;fillColor=#007FFF;" vertex="1" parent="1">
          <mxGeometry x="860" y="260" width="20" height="20" as="geometry" />
        </mxCell>
        <mxCell id="HJ_UJLVflk7De_gkT-XH-21" value="&lt;font style=&quot;font-size: 12px;&quot;&gt;Audi A1&lt;br&gt;&lt;/font&gt;&lt;blockquote style=&quot;margin: 0 0 0 40px; border: none; padding: 0px;&quot;&gt;&lt;font style=&quot;font-size: 12px;&quot;&gt;5 Years Old&lt;/font&gt;&lt;/blockquote&gt;&lt;blockquote style=&quot;margin: 0 0 0 40px; border: none; padding: 0px;&quot;&gt;&lt;font style=&quot;font-size: 12px;&quot;&gt;20 mpg&lt;/font&gt;&lt;/blockquote&gt;&lt;blockquote style=&quot;margin: 0 0 0 40px; border: none; padding: 0px;&quot;&gt;&lt;font style=&quot;font-size: 12px;&quot;&gt;20000 km mileage&lt;br&gt;&lt;/font&gt;&lt;font style=&quot;font-size: 12px;&quot;&gt;Â£76000&lt;/font&gt;&lt;/blockquote&gt;" style="strokeWidth=1;shadow=0;dashed=0;align=left;html=1;shape=mxgraph.mockup.buttons.button;strokeColor=#666666;fontColor=#ffffff;mainText=;buttonStyle=round;fontSize=17;fontStyle=1;fillColor=#007FFF;whiteSpace=wrap;" vertex="1" parent="1">
          <mxGeometry x="60" y="350" width="270" height="120" as="geometry" />
        </mxCell>
        <mxCell id="HJ_UJLVflk7De_gkT-XH-22" value="&lt;font style=&quot;font-size: 12px;&quot;&gt;Ford Fiesta&lt;br&gt;&lt;/font&gt;&lt;blockquote style=&quot;margin: 0 0 0 40px; border: none; padding: 0px;&quot;&gt;&lt;font style=&quot;font-size: 12px;&quot;&gt;2 Years Old&lt;/font&gt;&lt;/blockquote&gt;&lt;blockquote style=&quot;margin: 0 0 0 40px; border: none; padding: 0px;&quot;&gt;&lt;font style=&quot;font-size: 12px;&quot;&gt;35 mpg&lt;/font&gt;&lt;/blockquote&gt;&lt;blockquote style=&quot;margin: 0 0 0 40px; border: none; padding: 0px;&quot;&gt;&lt;font style=&quot;font-size: 12px;&quot;&gt;21000 km mileage&lt;/font&gt;&lt;/blockquote&gt;&lt;blockquote style=&quot;margin: 0 0 0 40px; border: none; padding: 0px;&quot;&gt;&lt;font style=&quot;font-size: 12px;&quot;&gt;Â£82000&lt;/font&gt;&lt;/blockquote&gt;" style="strokeWidth=1;shadow=0;dashed=0;align=left;html=1;shape=mxgraph.mockup.buttons.button;strokeColor=#666666;fontColor=#ffffff;mainText=;buttonStyle=round;fontSize=17;fontStyle=1;fillColor=#007FFF;whiteSpace=wrap;" vertex="1" parent="1">
          <mxGeometry x="60" y="495.31" width="270" height="114.69" as="geometry" />
        </mxCell>
        <mxCell id="HJ_UJLVflk7De_gkT-XH-23" value="&lt;font style=&quot;font-size: 12px;&quot;&gt;Toyota GT86&lt;br&gt;&lt;/font&gt;&lt;blockquote style=&quot;margin: 0 0 0 40px; border: none; padding: 0px;&quot;&gt;&lt;font style=&quot;font-size: 12px;&quot;&gt;7 Years Old&lt;br&gt;&lt;/font&gt;&lt;font style=&quot;font-size: 12px;&quot;&gt;10 mpg&lt;/font&gt;&lt;/blockquote&gt;&lt;blockquote style=&quot;margin: 0 0 0 40px; border: none; padding: 0px;&quot;&gt;&lt;span style=&quot;font-size: 12px;&quot;&gt;15000 km mileage&lt;/span&gt;&lt;/blockquote&gt;&lt;blockquote style=&quot;margin: 0 0 0 40px; border: none; padding: 0px;&quot;&gt;&lt;font style=&quot;font-size: 12px;&quot;&gt;Â£72000&lt;/font&gt;&lt;/blockquote&gt;" style="strokeWidth=1;shadow=0;dashed=0;align=left;html=1;shape=mxgraph.mockup.buttons.button;strokeColor=#666666;fontColor=#ffffff;mainText=;buttonStyle=round;fontSize=17;fontStyle=1;fillColor=#007FFF;whiteSpace=wrap;" vertex="1" parent="1">
          <mxGeometry x="60" y="640" width="270" height="130" as="geometry" />
        </mxCell>
        <mxCell id="HJ_UJLVflk7De_gkT-XH-30" value="&lt;font style=&quot;font-size: 11px;&quot;&gt;Add to Wishlist&lt;/font&gt;" style="html=1;shadow=0;dashed=0;shape=mxgraph.bootstrap.rrect;rSize=5;strokeColor=none;strokeWidth=1;fillColor=#33A64C;fontColor=#FFFFFF;whiteSpace=wrap;align=center;verticalAlign=middle;spacingLeft=0;fontStyle=0;fontSize=16;spacing=5;" vertex="1" parent="1">
          <mxGeometry x="220" y="360.63" width="90" height="29.37" as="geometry" />
        </mxCell>
        <mxCell id="HJ_UJLVflk7De_gkT-XH-31" value="&lt;font style=&quot;font-size: 11px;&quot;&gt;Add to Wishlist&lt;/font&gt;" style="html=1;shadow=0;dashed=0;shape=mxgraph.bootstrap.rrect;rSize=5;strokeColor=none;strokeWidth=1;fillColor=#33A64C;fontColor=#FFFFFF;whiteSpace=wrap;align=center;verticalAlign=middle;spacingLeft=0;fontStyle=0;fontSize=16;spacing=5;" vertex="1" parent="1">
          <mxGeometry x="220" y="511.25" width="90" height="29.37" as="geometry" />
        </mxCell>
        <mxCell id="HJ_UJLVflk7De_gkT-XH-32" value="&lt;font style=&quot;font-size: 11px;&quot;&gt;Add to Wishlist&lt;/font&gt;" style="html=1;shadow=0;dashed=0;shape=mxgraph.bootstrap.rrect;rSize=5;strokeColor=none;strokeWidth=1;fillColor=#33A64C;fontColor=#FFFFFF;whiteSpace=wrap;align=center;verticalAlign=middle;spacingLeft=0;fontStyle=0;fontSize=16;spacing=5;" vertex="1" parent="1">
          <mxGeometry x="220" y="670" width="90" height="29.37" as="geometry" />
        </mxCell>
        <mxCell id="HJ_UJLVflk7De_gkT-XH-51" value="&lt;font style=&quot;font-size: 12px;&quot;&gt;Audi A3&lt;br&gt;&lt;/font&gt;&lt;blockquote style=&quot;margin: 0 0 0 40px; border: none; padding: 0px;&quot;&gt;&lt;font style=&quot;font-size: 12px;&quot;&gt;3 Years Old&lt;/font&gt;&lt;/blockquote&gt;&lt;blockquote style=&quot;margin: 0 0 0 40px; border: none; padding: 0px;&quot;&gt;&lt;font style=&quot;font-size: 12px;&quot;&gt;20 mpg&lt;/font&gt;&lt;/blockquote&gt;&lt;blockquote style=&quot;margin: 0 0 0 40px; border: none; padding: 0px;&quot;&gt;&lt;font style=&quot;font-size: 12px;&quot;&gt;20000 km mileage&lt;br&gt;&lt;/font&gt;&lt;font style=&quot;font-size: 12px;&quot;&gt;Â£76000&lt;/font&gt;&lt;/blockquote&gt;" style="strokeWidth=1;shadow=0;dashed=0;align=left;html=1;shape=mxgraph.mockup.buttons.button;strokeColor=#666666;fontColor=#ffffff;mainText=;buttonStyle=round;fontSize=17;fontStyle=1;fillColor=#007FFF;whiteSpace=wrap;" vertex="1" parent="1">
          <mxGeometry x="400" y="350" width="270" height="120" as="geometry" />
        </mxCell>
        <mxCell id="HJ_UJLVflk7De_gkT-XH-52" value="&lt;font style=&quot;font-size: 12px;&quot;&gt;Ford Fiesta&lt;br&gt;&lt;/font&gt;&lt;blockquote style=&quot;margin: 0 0 0 40px; border: none; padding: 0px;&quot;&gt;&lt;font style=&quot;font-size: 12px;&quot;&gt;2 Years Old&lt;/font&gt;&lt;/blockquote&gt;&lt;blockquote style=&quot;margin: 0 0 0 40px; border: none; padding: 0px;&quot;&gt;&lt;font style=&quot;font-size: 12px;&quot;&gt;35 mpg&lt;/font&gt;&lt;/blockquote&gt;&lt;blockquote style=&quot;margin: 0 0 0 40px; border: none; padding: 0px;&quot;&gt;&lt;font style=&quot;font-size: 12px;&quot;&gt;21000 km mileage&lt;/font&gt;&lt;/blockquote&gt;&lt;blockquote style=&quot;margin: 0 0 0 40px; border: none; padding: 0px;&quot;&gt;&lt;font style=&quot;font-size: 12px;&quot;&gt;Â£82000&lt;/font&gt;&lt;/blockquote&gt;" style="strokeWidth=1;shadow=0;dashed=0;align=left;html=1;shape=mxgraph.mockup.buttons.button;strokeColor=#666666;fontColor=#ffffff;mainText=;buttonStyle=round;fontSize=17;fontStyle=1;fillColor=#007FFF;whiteSpace=wrap;" vertex="1" parent="1">
          <mxGeometry x="400" y="495.31" width="270" height="114.69" as="geometry" />
        </mxCell>
        <mxCell id="HJ_UJLVflk7De_gkT-XH-53" value="&lt;font style=&quot;font-size: 12px;&quot;&gt;Toyota GT86&lt;br&gt;&lt;/font&gt;&lt;blockquote style=&quot;margin: 0 0 0 40px; border: none; padding: 0px;&quot;&gt;&lt;font style=&quot;font-size: 12px;&quot;&gt;7 Years Old&lt;br&gt;&lt;/font&gt;&lt;font style=&quot;font-size: 12px;&quot;&gt;10 mpg&lt;/font&gt;&lt;/blockquote&gt;&lt;blockquote style=&quot;margin: 0 0 0 40px; border: none; padding: 0px;&quot;&gt;&lt;span style=&quot;font-size: 12px;&quot;&gt;15000 km mileage&lt;/span&gt;&lt;/blockquote&gt;&lt;blockquote style=&quot;margin: 0 0 0 40px; border: none; padding: 0px;&quot;&gt;&lt;font style=&quot;font-size: 12px;&quot;&gt;Â£72000&lt;/font&gt;&lt;/blockquote&gt;" style="strokeWidth=1;shadow=0;dashed=0;align=left;html=1;shape=mxgraph.mockup.buttons.button;strokeColor=#666666;fontColor=#ffffff;mainText=;buttonStyle=round;fontSize=17;fontStyle=1;fillColor=#007FFF;whiteSpace=wrap;" vertex="1" parent="1">
          <mxGeometry x="400" y="640" width="270" height="130" as="geometry" />
        </mxCell>
        <mxCell id="HJ_UJLVflk7De_gkT-XH-54" value="&lt;font style=&quot;font-size: 11px;&quot;&gt;Add to Wishlist&lt;/font&gt;" style="html=1;shadow=0;dashed=0;shape=mxgraph.bootstrap.rrect;rSize=5;strokeColor=none;strokeWidth=1;fillColor=#33A64C;fontColor=#FFFFFF;whiteSpace=wrap;align=center;verticalAlign=middle;spacingLeft=0;fontStyle=0;fontSize=16;spacing=5;" vertex="1" parent="1">
          <mxGeometry x="560" y="360.63" width="90" height="29.37" as="geometry" />
        </mxCell>
        <mxCell id="HJ_UJLVflk7De_gkT-XH-55" value="&lt;font style=&quot;font-size: 11px;&quot;&gt;Add to Wishlist&lt;/font&gt;" style="html=1;shadow=0;dashed=0;shape=mxgraph.bootstrap.rrect;rSize=5;strokeColor=none;strokeWidth=1;fillColor=#33A64C;fontColor=#FFFFFF;whiteSpace=wrap;align=center;verticalAlign=middle;spacingLeft=0;fontStyle=0;fontSize=16;spacing=5;" vertex="1" parent="1">
          <mxGeometry x="560" y="511.25" width="90" height="29.37" as="geometry" />
        </mxCell>
        <mxCell id="HJ_UJLVflk7De_gkT-XH-56" value="&lt;font style=&quot;font-size: 11px;&quot;&gt;Add to Wishlist&lt;/font&gt;" style="html=1;shadow=0;dashed=0;shape=mxgraph.bootstrap.rrect;rSize=5;strokeColor=none;strokeWidth=1;fillColor=#33A64C;fontColor=#FFFFFF;whiteSpace=wrap;align=center;verticalAlign=middle;spacingLeft=0;fontStyle=0;fontSize=16;spacing=5;" vertex="1" parent="1">
          <mxGeometry x="560" y="670" width="90" height="29.37" as="geometry" />
        </mxCell>
        <mxCell id="HJ_UJLVflk7De_gkT-XH-57" value="&lt;font style=&quot;font-size: 12px;&quot;&gt;Audi A1&lt;br&gt;&lt;/font&gt;&lt;blockquote style=&quot;margin: 0 0 0 40px; border: none; padding: 0px;&quot;&gt;&lt;font style=&quot;font-size: 12px;&quot;&gt;5 Years Old&lt;/font&gt;&lt;/blockquote&gt;&lt;blockquote style=&quot;margin: 0 0 0 40px; border: none; padding: 0px;&quot;&gt;&lt;font style=&quot;font-size: 12px;&quot;&gt;20 mpg&lt;/font&gt;&lt;/blockquote&gt;&lt;blockquote style=&quot;margin: 0 0 0 40px; border: none; padding: 0px;&quot;&gt;&lt;font style=&quot;font-size: 12px;&quot;&gt;20000 km mileage&lt;br&gt;&lt;/font&gt;&lt;font style=&quot;font-size: 12px;&quot;&gt;Â£76000&lt;/font&gt;&lt;/blockquote&gt;" style="strokeWidth=1;shadow=0;dashed=0;align=left;html=1;shape=mxgraph.mockup.buttons.button;strokeColor=#666666;fontColor=#ffffff;mainText=;buttonStyle=round;fontSize=17;fontStyle=1;fillColor=#007FFF;whiteSpace=wrap;" vertex="1" parent="1">
          <mxGeometry x="725" y="350" width="270" height="120" as="geometry" />
        </mxCell>
        <mxCell id="HJ_UJLVflk7De_gkT-XH-58" value="&lt;font style=&quot;font-size: 12px;&quot;&gt;Ford Fiesta&lt;br&gt;&lt;/font&gt;&lt;blockquote style=&quot;margin: 0 0 0 40px; border: none; padding: 0px;&quot;&gt;&lt;font style=&quot;font-size: 12px;&quot;&gt;2 Years Old&lt;/font&gt;&lt;/blockquote&gt;&lt;blockquote style=&quot;margin: 0 0 0 40px; border: none; padding: 0px;&quot;&gt;&lt;font style=&quot;font-size: 12px;&quot;&gt;35 mpg&lt;/font&gt;&lt;/blockquote&gt;&lt;blockquote style=&quot;margin: 0 0 0 40px; border: none; padding: 0px;&quot;&gt;&lt;font style=&quot;font-size: 12px;&quot;&gt;21000 km mileage&lt;/font&gt;&lt;/blockquote&gt;&lt;blockquote style=&quot;margin: 0 0 0 40px; border: none; padding: 0px;&quot;&gt;&lt;font style=&quot;font-size: 12px;&quot;&gt;Â£82000&lt;/font&gt;&lt;/blockquote&gt;" style="strokeWidth=1;shadow=0;dashed=0;align=left;html=1;shape=mxgraph.mockup.buttons.button;strokeColor=#666666;fontColor=#ffffff;mainText=;buttonStyle=round;fontSize=17;fontStyle=1;fillColor=#007FFF;whiteSpace=wrap;" vertex="1" parent="1">
          <mxGeometry x="725" y="495.30999999999995" width="270" height="114.69" as="geometry" />
        </mxCell>
        <mxCell id="HJ_UJLVflk7De_gkT-XH-59" value="&lt;font style=&quot;font-size: 12px;&quot;&gt;Toyota GT86&lt;br&gt;&lt;/font&gt;&lt;blockquote style=&quot;margin: 0 0 0 40px; border: none; padding: 0px;&quot;&gt;&lt;font style=&quot;font-size: 12px;&quot;&gt;7 Years Old&lt;br&gt;&lt;/font&gt;&lt;font style=&quot;font-size: 12px;&quot;&gt;10 mpg&lt;/font&gt;&lt;/blockquote&gt;&lt;blockquote style=&quot;margin: 0 0 0 40px; border: none; padding: 0px;&quot;&gt;&lt;span style=&quot;font-size: 12px;&quot;&gt;15000 km mileage&lt;/span&gt;&lt;/blockquote&gt;&lt;blockquote style=&quot;margin: 0 0 0 40px; border: none; padding: 0px;&quot;&gt;&lt;font style=&quot;font-size: 12px;&quot;&gt;Â£72000&lt;/font&gt;&lt;/blockquote&gt;" style="strokeWidth=1;shadow=0;dashed=0;align=left;html=1;shape=mxgraph.mockup.buttons.button;strokeColor=#666666;fontColor=#ffffff;mainText=;buttonStyle=round;fontSize=17;fontStyle=1;fillColor=#007FFF;whiteSpace=wrap;" vertex="1" parent="1">
          <mxGeometry x="725" y="640" width="270" height="130" as="geometry" />
        </mxCell>
        <mxCell id="HJ_UJLVflk7De_gkT-XH-60" value="&lt;font style=&quot;font-size: 11px;&quot;&gt;Add to Wishlist&lt;/font&gt;" style="html=1;shadow=0;dashed=0;shape=mxgraph.bootstrap.rrect;rSize=5;strokeColor=none;strokeWidth=1;fillColor=#33A64C;fontColor=#FFFFFF;whiteSpace=wrap;align=center;verticalAlign=middle;spacingLeft=0;fontStyle=0;fontSize=16;spacing=5;" vertex="1" parent="1">
          <mxGeometry x="885" y="360.63" width="90" height="29.37" as="geometry" />
        </mxCell>
        <mxCell id="HJ_UJLVflk7De_gkT-XH-61" value="&lt;font style=&quot;font-size: 11px;&quot;&gt;Add to Wishlist&lt;/font&gt;" style="html=1;shadow=0;dashed=0;shape=mxgraph.bootstrap.rrect;rSize=5;strokeColor=none;strokeWidth=1;fillColor=#33A64C;fontColor=#FFFFFF;whiteSpace=wrap;align=center;verticalAlign=middle;spacingLeft=0;fontStyle=0;fontSize=16;spacing=5;" vertex="1" parent="1">
          <mxGeometry x="885" y="511.25" width="90" height="29.37" as="geometry" />
        </mxCell>
        <mxCell id="HJ_UJLVflk7De_gkT-XH-62" value="&lt;font style=&quot;font-size: 11px;&quot;&gt;Add to Wishlist&lt;/font&gt;" style="html=1;shadow=0;dashed=0;shape=mxgraph.bootstrap.rrect;rSize=5;strokeColor=none;strokeWidth=1;fillColor=#33A64C;fontColor=#FFFFFF;whiteSpace=wrap;align=center;verticalAlign=middle;spacingLeft=0;fontStyle=0;fontSize=16;spacing=5;" vertex="1" parent="1">
          <mxGeometry x="885" y="670" width="90" height="29.37" as="geometry" />
        </mxCell>
      </root>
    </mxGraphModel>
  </diagram>
</mxfile>
